<svg xmlns="http://www.w3.org/2000/svg" viewBox="0 0 121.19 121.19">
    <g data-name="图层 2">
        <g data-name="图层 1">
            <path d="M60.59 0a60.6 60.6 0 1 0 60.6 60.59A60.59 60.59 0 0 0 60.59 0Z" style="fill:#fa322d"/>
            <path d="m44 36.64-9.66 54.81a1.56 1.56 0 0 0 2.32 1.62l13.12-7.57a6.25 6.25 0 0 0 3-4.32l4.28-24.27a1.56 1.56 0 0 1 2.07-1.2l23.16 8.43a6.26 6.26 0 0 0 5.26-.46l13.12-7.58a1.55 1.55 0 0 0-.25-2.81l-52.3-19A3.11 3.11 0 0 0 44 36.64Z" style="fill:#fff"/>
        </g>
    </g>
</svg>
